<?xml version="1.0" encoding="UTF-8" standalone="no"?>
<svg
   xmlns:dc="http://purl.org/dc/elements/1.1/"
   xmlns:cc="http://creativecommons.org/ns#"
   xmlns:rdf="http://www.w3.org/1999/02/22-rdf-syntax-ns#"
   xmlns:svg="http://www.w3.org/2000/svg"
   xmlns="http://www.w3.org/2000/svg"
   xmlns:sodipodi="http://sodipodi.sourceforge.net/DTD/sodipodi-0.dtd"
   xmlns:inkscape="http://www.inkscape.org/namespaces/inkscape"
   width="56.968826mm"
   height="28.549231mm"
   viewBox="0 0 56.968826 28.549231"
   version="1.1"
   id="svg8"
   inkscape:version="1.0.1 (3bc2e813f5, 2020-09-07)"
   sodipodi:docname="city brand of pekalongan.svg">
  <defs
     id="defs2" />
  <sodipodi:namedview
     id="base"
     pagecolor="#ffffff"
     bordercolor="#666666"
     borderopacity="1.0"
     inkscape:pageopacity="0.0"
     inkscape:pageshadow="2"
     inkscape:zoom="0.98994949"
     inkscape:cx="106.90419"
     inkscape:cy="-25.785054"
     inkscape:document-units="mm"
     inkscape:current-layer="layer1"
     inkscape:document-rotation="0"
     showgrid="false"
     fit-margin-top="0"
     fit-margin-left="0"
     fit-margin-right="0"
     fit-margin-bottom="0"
     inkscape:window-width="1350"
     inkscape:window-height="728"
     inkscape:window-x="0"
     inkscape:window-y="0"
     inkscape:window-maximized="0" />
  <metadata
     id="metadata5">
    <rdf:RDF>
      <cc:Work
         rdf:about="">
        <dc:format>image/svg+xml</dc:format>
        <dc:type
           rdf:resource="http://purl.org/dc/dcmitype/StillImage" />
        <dc:title></dc:title>
      </cc:Work>
    </rdf:RDF>
  </metadata>
  <g
     inkscape:label="Lapis 1"
     inkscape:groupmode="layer"
     id="layer1"
     transform="translate(-219.75952,-177.43904)">
    <path
       style="fill:#000000;stroke-width:0.0356103"
       d="m 253.10885,205.90116 c -0.3896,-0.19312 -0.62128,-0.5744 -0.6977,-1.14819 -0.16842,-1.26469 0.61476,-3.48058 1.9682,-5.56869 l 0.24672,-0.38065 -0.0255,-0.46858 c -0.014,-0.25772 -0.0352,-0.51604 -0.047,-0.57405 l -0.0216,-0.10546 -0.17798,0.22186 c -0.28268,0.35239 -0.31786,0.36994 -0.74146,0.36994 -0.31052,0 -0.38533,-0.0119 -0.52264,-0.0833 -0.30758,-0.15991 -0.49281,-0.4148 -0.57293,-0.78837 -0.0211,-0.0984 -0.049,-0.17837 -0.0621,-0.17782 -0.013,4.3e-4 -0.13593,0.10558 -0.27303,0.23339 -0.53529,0.49902 -0.87636,0.65587 -1.42621,0.65587 -0.37435,0 -0.59078,-0.0743 -0.78664,-0.27021 -0.27485,-0.27485 -0.36726,-0.60334 -0.39985,-1.42128 -0.0279,-0.70157 0.01,-0.71826 -0.36265,0.16024 -0.39318,0.92728 -0.6228,1.28406 -0.85651,1.3308 -0.16339,0.0327 -0.36705,-0.0338 -0.50659,-0.16552 -0.10312,-0.0973 -0.12535,-0.14731 -0.14601,-0.32843 -0.0134,-0.11752 -0.007,-0.41397 0.0144,-0.6588 0.0213,-0.24482 0.0488,-0.62757 0.061,-0.85055 0.0261,-0.47674 -0.003,-0.49952 -0.20222,-0.15875 -0.30484,0.52108 -0.57928,0.79479 -0.97833,0.97573 -0.2029,0.092 -0.29632,0.11055 -0.66779,0.13259 l -0.43189,0.0256 -0.0473,0.20857 c -0.11953,0.52724 -0.45544,0.92513 -0.90793,1.07542 -0.21949,0.0729 -0.65258,0.0747 -0.82313,0.003 -0.18197,-0.076 -0.37832,-0.29669 -0.54055,-0.60746 -0.0777,-0.14876 -0.14687,-0.27048 -0.15382,-0.27048 -0.007,0 -0.14897,0.10817 -0.31562,0.24037 -0.8033,0.63728 -0.94519,0.6996 -1.59784,0.70176 -0.45735,0.002 -0.46691,-1e-4 -0.71221,-0.12064 -0.16665,-0.0819 -0.33526,-0.20704 -0.51133,-0.37954 l -0.26269,-0.25737 -0.20024,0.16319 c -0.24573,0.20025 -0.55739,0.34535 -0.85945,0.40012 -0.55296,0.10027 -1.02223,-0.13829 -1.2504,-0.63566 -0.0463,-0.1009 -0.0934,-0.18345 -0.10462,-0.18345 -0.0112,0 -0.1218,0.12866 -0.24566,0.28591 -0.43822,0.55636 -0.74553,0.69834 -1.18637,0.54813 -0.26042,-0.0887 -0.5098,-0.41392 -0.63277,-0.82514 -0.0521,-0.17429 -0.11296,-0.19134 -0.20137,-0.0564 -0.10846,0.16554 -0.57669,0.50751 -0.91379,0.6674 -0.45892,0.21766 -0.8871,0.31461 -1.38581,0.31376 -0.4547,-8.5e-4 -0.70189,-0.0626 -1.10232,-0.2759 -0.65412,-0.34837 -1.03077,-1.01443 -0.76294,-1.34915 0.0758,-0.0947 0.10793,-0.10567 0.36643,-0.12466 0.32519,-0.0239 0.38827,-0.0567 0.67459,-0.3511 0.3913,-0.4023 0.69121,-0.97763 0.63738,-1.2227 -0.0358,-0.16289 -0.18291,-0.2563 -0.36474,-0.23156 -0.30295,0.0412 -0.55338,0.224 -0.87689,0.63998 -0.38516,0.49525 -0.73727,1.18431 -1.09444,2.14169 -0.12421,0.33296 -0.24213,0.61693 -0.26203,0.63105 -0.062,0.044 -0.32708,0.0716 -0.44305,0.0461 -0.14075,-0.0309 -0.21782,-0.17413 -0.24298,-0.45149 -0.0103,-0.11434 -0.0286,-0.20774 -0.0406,-0.20756 -0.012,1.3e-4 -0.18454,0.1353 -0.38349,0.30028 -0.42535,0.35273 -0.55582,0.42456 -0.86683,0.47727 -0.70498,0.11946 -1.41787,-0.27227 -1.67484,-0.92032 -0.22207,-0.56003 -0.23391,-1.45182 -0.0279,-2.10102 0.12191,-0.38415 0.31282,-0.71099 0.56314,-0.96408 0.26969,-0.27267 0.51239,-0.40281 0.75124,-0.40281 0.32495,0 0.47084,0.20529 0.53472,0.75241 0.10756,0.92108 -0.23287,1.89935 -0.90424,2.59851 -0.20657,0.21513 -0.21292,0.2271 -0.14743,0.27775 0.17912,0.13855 0.39035,0.20583 0.64772,0.20632 0.37619,8.6e-4 0.69106,-0.16567 1.15393,-0.60977 0.30817,-0.29568 0.35361,-0.35565 0.41819,-0.55196 0.0758,-0.23053 0.25534,-1.0168 0.32262,-1.41319 0.0216,-0.12732 0.0548,-0.3116 0.0739,-0.40953 0.0427,-0.21956 0.25868,-1.60465 0.33321,-2.13662 0.24105,-1.72034 0.44983,-2.99732 0.50163,-3.06817 0.0532,-0.0728 0.29846,-0.0361 0.42521,0.0636 0.12688,0.0998 0.14606,0.26992 0.0774,0.68599 -0.0327,0.19801 -0.0989,0.66449 -0.14713,1.03662 -0.18422,1.42137 -0.3046,2.31116 -0.44595,3.29643 -0.11147,0.77694 -0.12678,0.99462 -0.07,0.99462 0.0193,0 0.15152,-0.13925 0.29378,-0.30944 0.39462,-0.47208 0.67113,-0.72692 0.95862,-0.88351 0.24726,-0.13467 0.27802,-0.14242 0.56421,-0.14201 0.34074,4.3e-4 0.52442,0.0711 0.68686,0.26418 0.33728,0.40083 0.14476,1.17917 -0.45728,1.84879 -0.26525,0.29501 -0.50038,0.43292 -0.81288,0.47678 l -0.27135,0.0381 v 0.11759 c 0,0.17262 0.3054,0.47392 0.64564,0.63698 0.24516,0.11748 0.28134,0.12472 0.61752,0.12356 0.84238,-0.003 1.40993,-0.21959 1.91865,-0.73241 0.26786,-0.27001 0.51538,-0.64739 0.86183,-1.31395 0.35739,-0.68762 0.5315,-0.95408 0.77128,-1.18043 0.24515,-0.2314 0.49697,-0.35967 0.78665,-0.40069 0.47033,-0.0666 0.75936,0.0728 0.90572,0.43688 0.11317,0.28153 0.13458,0.77296 0.0691,1.58496 -0.0455,0.56415 -0.046,0.69654 -0.003,0.96018 0.0627,0.38739 0.13478,0.47282 0.41875,0.49637 0.23922,0.0198 0.48197,-0.081 0.84742,-0.35188 0.23022,-0.17067 0.28506,-0.25678 0.21426,-0.33642 -0.0586,-0.0659 -0.1848,-0.46576 -0.25623,-0.81162 -0.15373,-0.74432 -0.14636,-2.15116 0.0164,-3.13935 0.38491,-2.33662 1.27707,-3.86967 2.32411,-3.99368 0.53766,-0.0637 0.82821,0.5434 0.82914,1.73242 0.002,1.95855 -0.84198,4.54941 -2.01128,6.17759 l -0.20401,0.28407 0.13779,0.12117 c 0.0758,0.0666 0.22593,0.16315 0.33365,0.21447 0.17573,0.0837 0.23612,0.0931 0.58758,0.0913 0.36017,-0.002 0.4138,-0.0114 0.66607,-0.11838 0.35647,-0.15114 0.63444,-0.34019 0.90766,-0.61733 0.28495,-0.28905 0.45547,-0.57749 0.5268,-0.8911 0.104,-0.4572 0.46629,-1.05298 0.64371,-1.05853 0.0567,-0.002 0.20753,-0.17569 0.31565,-0.36404 0.21412,-0.37298 0.4268,-0.48405 0.809,-0.4225 0.28345,0.0456 0.43988,0.16682 0.58725,0.4549 0.14833,0.28993 0.20827,0.71112 0.17882,1.25632 -0.0121,0.22524 -0.0323,0.44558 -0.0447,0.48965 -0.0225,0.0797 -0.0203,0.0801 0.37526,0.0801 0.37212,0 0.41214,-0.007 0.61843,-0.10906 0.37272,-0.18429 0.566,-0.42 0.68434,-0.83461 0.0906,-0.31729 0.16468,-0.48106 0.23468,-0.51852 0.10391,-0.0556 0.32728,-0.0374 0.44855,0.0365 0.27626,0.16845 0.33775,0.55522 0.26059,1.63931 -0.0432,0.60761 -0.0304,0.77798 0.0542,0.71953 0.095,-0.0656 0.30661,-0.37354 0.43338,-0.63047 0.13141,-0.26632 0.19943,-0.43469 0.52514,-1.29978 0.19056,-0.50611 0.31254,-0.75179 0.40261,-0.81082 0.0857,-0.0562 0.26612,-0.0469 0.44437,0.0229 0.0935,0.0366 0.0979,0.0494 0.0979,0.28007 0,0.13296 -0.0335,0.50593 -0.0745,0.82883 -0.14608,1.15063 -0.0262,1.62338 0.45169,1.7811 0.42998,0.14191 1.13603,-0.23686 1.56678,-0.84051 0.0875,-0.12263 0.30305,-0.47423 0.47897,-0.78133 0.4311,-0.75254 0.54874,-0.92632 0.78618,-1.16139 0.2269,-0.22464 0.50254,-0.37541 0.74716,-0.4087 0.30848,-0.042 0.76196,0.14986 0.85931,0.3635 0.0548,0.12024 0.0993,0.10591 0.23638,-0.076 0.12667,-0.16815 0.15282,-0.17678 0.37769,-0.12464 0.25622,0.0594 0.28613,0.18775 0.14196,0.60915 -0.2182,0.63771 -0.34672,1.1892 -0.424,1.81927 -0.0644,0.52493 -0.0753,1.41861 -0.0174,1.41861 0.0208,0 0.12099,-0.0377 0.22257,-0.0838 0.10156,-0.0461 0.28883,-0.12898 0.41613,-0.18426 0.12731,-0.0553 0.24546,-0.1125 0.26256,-0.12716 0.0171,-0.0147 0,-0.072 -0.0382,-0.12734 -0.3575,-0.51951 -0.38314,-1.33659 -0.0666,-2.1204 0.27538,-0.68176 0.88098,-1.29053 1.4689,-1.47658 0.17087,-0.0541 0.2019,-0.0541 0.42059,-1.1e-4 0.30864,0.0762 0.40827,0.15213 0.55512,0.42324 l 0.12153,0.22435 -0.004,0.49855 c -0.002,0.2742 -0.03,0.69837 -0.0622,0.94261 -0.0322,0.24424 -0.0585,0.54222 -0.0585,0.66218 0,0.25006 0.0274,0.28743 0.30399,0.41439 0.23372,0.10729 0.71344,0.11552 0.91479,0.0157 0.3621,-0.17953 0.64672,-0.55606 1.11798,-1.47903 0.18387,-0.36012 0.37789,-0.688 0.46359,-0.78343 0.13598,-0.15143 0.15997,-0.16386 0.31023,-0.16074 0.23908,0.005 0.40164,0.12685 0.47044,0.35272 0.0454,0.14917 0.0502,0.32105 0.0297,1.05942 -0.0214,0.76885 -0.0178,0.88135 0.0286,0.88135 0.15007,0 0.4587,-0.60022 0.95225,-1.8519 0.0811,-0.20574 0.19191,-0.46213 0.24619,-0.56976 l 0.0987,-0.1957 0.16284,0.005 c 0.0896,0.003 0.2368,0.0381 0.32721,0.0781 l 0.16437,0.0727 v 0.22614 c 0,0.12438 -0.05,0.4658 -0.11105,0.75873 -0.14323,0.68701 -0.15738,1.16271 -0.0421,1.41367 0.20829,0.45315 0.72393,0.62336 1.20229,0.39687 0.37096,-0.17564 0.63839,-0.52764 1.14215,-1.50332 0.24182,-0.46835 0.42589,-0.68272 0.58622,-0.68272 0.0935,0 0.10687,0.0126 0.10687,0.10037 0,0.17574 -0.10711,0.47663 -0.30019,0.84331 -0.27406,0.52045 -0.48733,0.81078 -0.89012,1.21179 -0.29497,0.29364 -0.41414,0.38502 -0.67036,0.514 -0.28972,0.14586 -0.33134,0.15688 -0.59271,0.15688 -0.30508,0 -0.35753,-0.0215 -0.61155,-0.25102 -0.33865,-0.30596 -0.45864,-0.68003 -0.48625,-1.51592 -0.0108,-0.32806 -0.034,-0.59647 -0.0515,-0.59647 -0.0175,0 -0.0373,0.02 -0.0439,0.0445 -0.25743,0.9477 -0.54158,1.59294 -0.84905,1.92804 -0.31709,0.34558 -0.59571,0.37238 -0.76393,0.0735 -0.13508,-0.24002 -0.16346,-0.54882 -0.13477,-1.46677 0.0219,-0.70293 0.0183,-0.83485 -0.0228,-0.82116 -0.0269,0.009 -0.1932,0.28828 -0.36951,0.62068 -0.55803,1.05206 -0.87082,1.43614 -1.36717,1.67878 -0.25555,0.12493 -0.29363,0.13316 -0.6686,0.14437 -0.4723,0.0141 -0.61753,-0.034 -0.89993,-0.29814 l -0.17816,-0.16665 -0.23253,0.16593 c -0.12789,0.0913 -0.232,0.17714 -0.23135,0.19084 8.5e-4,0.0137 0.12483,0.11591 0.27598,0.22712 0.15114,0.11122 0.4671,0.36367 0.70213,0.561 0.49021,0.41157 1.55936,1.2753 1.69149,1.36649 1.20118,0.82901 2.08501,1.25338 3.1944,1.53377 1.55299,0.39252 3.61483,0.40611 4.92477,0.0324 0.97376,-0.27776 1.54784,-0.49447 2.25723,-0.85208 0.95132,-0.47957 1.69464,-1.00836 2.43856,-1.73476 0.73378,-0.71652 1.25311,-1.38976 1.74679,-2.26451 0.21869,-0.38749 0.47059,-0.93731 0.63717,-1.39072 0.44577,-1.21337 0.61334,-2.20094 0.61632,-3.63226 0.003,-1.18656 -0.10759,-1.97875 -0.41555,-2.99127 -0.29999,-0.9863 -0.70526,-1.82869 -1.31919,-2.742 -0.71337,-1.06124 -1.64471,-1.98834 -2.72391,-2.71148 -0.41123,-0.27555 -1.35912,-0.75373 -1.78735,-0.90165 -0.35761,-0.12352 -0.87809,-0.26739 -0.96942,-0.26796 -0.0484,-2.9e-4 -0.11433,-0.0692 -0.20489,-0.21411 -0.10227,-0.16361 -0.12025,-0.21366 -0.0767,-0.21366 0.14621,0 0.78782,0.15485 1.18532,0.28607 1.33432,0.44046 2.48435,1.14836 3.67153,2.25999 0.28386,0.26578 0.3462,0.26435 0.23099,-0.005 -0.11387,-0.26656 -0.30283,-0.90149 -0.39579,-1.32998 -0.0503,-0.23191 -0.0653,-0.4484 -0.064,-0.92587 0.002,-0.65298 0.0128,-0.72329 0.25716,-1.63808 0.25215,-0.94396 0.26763,-1.5651 0.0616,-2.47238 -0.0486,-0.21404 -0.0813,-0.39621 -0.0727,-0.4048 0.009,-0.009 0.11362,0.0778 0.23339,0.19206 0.24738,0.23597 0.39738,0.51537 0.55078,1.02592 0.0657,0.2188 0.12565,0.34583 0.19315,0.40953 0.99599,0.93998 1.11761,1.1523 1.10334,1.92627 -0.007,0.37234 -0.006,0.37518 0.14164,0.67773 0.20021,0.40952 0.27724,0.788 0.22807,1.12059 -0.0573,0.38782 -0.16593,0.62124 -0.56301,1.2102 -0.20242,0.30025 -0.40795,0.62465 -0.45672,0.7209 -0.13823,0.27277 -0.21149,0.6008 -0.18718,0.83805 0.0236,0.23046 0.0795,0.3525 0.39545,0.86365 0.84732,1.3708 1.27888,2.65684 1.48161,4.41515 0.0635,0.55106 0.0819,1.59447 0.0342,1.94077 -0.24209,1.75619 -0.51209,2.67717 -1.15355,3.93495 -0.4736,0.92861 -1.12183,1.82045 -1.87518,2.57984 -2.43511,2.45465 -5.78204,3.50657 -9.39483,2.95277 -1.26544,-0.19398 -2.43417,-0.61283 -3.43157,-1.2298 -0.47927,-0.29646 -0.93353,-0.6463 -1.72044,-1.32494 -1.14917,-0.99106 -1.69541,-1.30927 -2.31467,-1.3484 -0.41313,-0.0261 -0.65854,0.0473 -1.11857,0.33457 -0.20739,0.12951 -0.3847,0.2423 -0.39402,0.25065 -0.009,0.008 -0.0276,0.92363 -0.0406,2.03396 -0.0259,2.20839 -0.0533,2.5795 -0.24769,3.35417 -0.20904,0.83302 -0.59692,1.37975 -1.11993,1.57862 -0.31773,0.12081 -0.54302,0.12185 -0.78154,0.003 z m 0.80425,-0.83603 c 0.31032,-0.3356 0.54334,-1.48674 0.6881,-3.39918 0.0785,-1.03659 0.1041,-1.78615 0.062,-1.81217 -0.0622,-0.0384 -0.2402,0.21797 -0.46354,0.66774 -0.74052,1.49133 -1.1907,3.13692 -1.07582,3.93255 0.0422,0.29242 0.12558,0.47977 0.27442,0.6168 0.22698,0.20898 0.31724,0.20797 0.51486,-0.006 z m -0.11544,-7.38525 c 0.16553,-0.0856 0.36331,-0.3365 0.50444,-0.63991 0.31957,-0.68711 0.47731,-1.59914 0.33914,-1.96093 -0.2687,-0.70359 -1.07141,-0.11172 -1.33915,0.98742 -0.10425,0.428 -0.13138,1.0582 -0.0566,1.31537 0.0915,0.31465 0.3012,0.42785 0.55219,0.29805 z m -9.23571,-0.14329 c 0.21465,-0.12579 0.38888,-0.43307 0.45786,-0.80751 0.0213,-0.11569 0.0149,-0.13171 -0.0601,-0.15054 -0.13686,-0.0344 -0.38095,-0.27559 -0.66558,-0.65782 -0.14689,-0.19726 -0.28487,-0.3594 -0.30663,-0.36031 -0.0542,-0.002 -0.23718,0.35524 -0.33483,0.65411 -0.10171,0.31128 -0.11149,0.818 -0.02,1.03574 0.0659,0.1568 0.21255,0.32811 0.32316,0.37748 0.12342,0.0551 0.43703,0.008 0.60611,-0.0911 z m -8.29308,-0.006 c 0.31608,-0.14999 0.73312,-0.8631 0.94479,-1.61558 0.0925,-0.32875 0.11554,-0.47743 0.11693,-0.75386 0.001,-0.29587 -0.009,-0.35854 -0.0731,-0.44513 -0.18177,-0.24472 -0.46333,-0.17628 -0.83875,0.20387 -0.26403,0.26735 -0.50916,0.71137 -0.63785,1.15537 -0.10559,0.36429 -0.13403,1.03396 -0.0529,1.24631 0.10006,0.26199 0.28154,0.33212 0.54094,0.20902 z m 20.90502,-0.30118 c 0.44494,-0.21539 0.88651,-1.12275 0.92801,-1.90689 0.0438,-0.82789 -0.35074,-1.02014 -0.81783,-0.3985 -0.29932,0.39836 -0.73995,1.51336 -0.73995,1.87243 0,0.44822 0.24719,0.61816 0.62977,0.43296 z m -30.25607,-0.63512 c 0.17142,-0.1802 0.39928,-0.59685 0.49149,-0.89868 0.0872,-0.2854 0.1623,-0.92127 0.12955,-1.09658 -0.0486,-0.26031 -0.17627,-0.28425 -0.37903,-0.0711 -0.17092,0.17967 -0.46473,0.77801 -0.56746,1.15562 -0.0861,0.31646 -0.10565,0.79275 -0.0391,0.95258 0.0615,0.14766 0.19935,0.13183 0.36457,-0.0418 z m 12.97281,-0.4211 c 0.57968,-0.98366 1.08952,-2.23138 1.37712,-3.37015 0.23017,-0.91135 0.35085,-1.93804 0.28626,-2.43541 -0.0671,-0.51636 -0.15699,-0.68443 -0.36624,-0.68443 -0.15071,0 -0.41708,0.27745 -0.63243,0.65874 -0.17979,0.3183 -0.59104,1.26291 -0.73249,1.68243 -0.11701,0.34703 -0.25026,0.98206 -0.30405,1.44896 -0.0525,0.45556 -0.0523,1.79059 2.9e-4,2.21022 0.0615,0.49065 0.12166,0.83684 0.14545,0.83684 0.0118,0 0.11355,-0.15624 0.22609,-0.3472 z m 5.272,-0.57288 c -0.007,-0.64965 -0.14054,-1.00288 -0.3788,-1.00288 -0.15541,0 -0.31163,0.22974 -0.31163,0.45828 0,0.20497 0.0455,0.29923 0.28677,0.59455 0.36314,0.44441 0.40903,0.43873 0.40366,-0.0499 z m 29.2401,-11.4016 c 0,-0.0763 -0.10347,-0.0653 -0.11848,0.0126 -0.009,0.0476 0.005,0.0621 0.0529,0.0529 0.0361,-0.007 0.0655,-0.0365 0.0655,-0.0656 z m -0.20215,-0.36747 c 0.007,-0.0344 -0.0112,-0.0594 -0.0424,-0.0594 -0.0661,0 -0.10608,0.058 -0.0748,0.10872 0.0322,0.0521 0.10331,0.0222 0.11718,-0.0494 z m -0.10942,-0.35315 c -0.0225,-0.0674 -0.13356,-0.077 -0.13356,-0.0115 0,0.033 0.0305,0.056 0.0742,0.056 0.0435,0 0.0681,-0.0184 0.0594,-0.0445 z m -0.10473,-0.40952 c -0.007,-0.0343 -0.0356,-0.0623 -0.0644,-0.0623 -0.0288,0 -0.0578,0.028 -0.0644,0.0623 -0.008,0.0437 0.0108,0.0623 0.0644,0.0623 0.0536,0 0.0729,-0.0186 0.0644,-0.0623 z m -0.0687,-0.4592 c -0.031,-0.0374 -0.0525,-0.0394 -0.0899,-0.008 -0.0374,0.031 -0.0394,0.0525 -0.008,0.0899 0.031,0.0374 0.0525,0.0394 0.0899,0.008 0.0374,-0.031 0.0394,-0.0525 0.008,-0.0899 z m -0.0554,-0.24973 c 0.0322,-0.0322 -0.0476,-0.12295 -0.0868,-0.0987 -0.0491,0.0303 -0.0371,0.12214 0.0159,0.12214 0.0261,0 0.058,-0.0106 0.0709,-0.0234 z m -0.0338,-0.42305 c 0.0121,-0.0315 -0.002,-0.0636 -0.0333,-0.0756 -0.0697,-0.0267 -0.10147,0.005 -0.0746,0.0754 0.027,0.0704 0.0809,0.0705 0.10794,1.8e-4 z m 0.0222,-0.40817 c 0,-0.0737 -0.0859,-0.0983 -0.12464,-0.0356 -0.0298,0.0482 0.0104,0.10683 0.0733,0.10683 0.0282,0 0.0513,-0.032 0.0513,-0.0712 z m 0.11761,-0.37342 c 0.004,-0.0193 -0.021,-0.0405 -0.0553,-0.0471 -0.039,-0.007 -0.0623,0.01 -0.0623,0.0466 0,0.062 0.10524,0.0624 0.11761,4.3e-4 z m 0.11386,-0.37489 c 0,-0.0763 -0.10348,-0.0653 -0.11848,0.0126 -0.009,0.0476 0.005,0.0621 0.0529,0.0529 0.0361,-0.007 0.0656,-0.0364 0.0656,-0.0655 z m 0.089,-0.42683 c 0,-0.0396 -0.0237,-0.0712 -0.0534,-0.0712 -0.0297,0 -0.0534,0.0317 -0.0534,0.0712 0,0.0396 0.0238,0.0712 0.0534,0.0712 0.0297,0 0.0534,-0.0317 0.0534,-0.0712 z m 0.13566,-0.41843 c -0.007,-0.0343 -0.0356,-0.0623 -0.0644,-0.0623 -0.0288,0 -0.0578,0.028 -0.0644,0.0623 -0.008,0.0437 0.0108,0.0623 0.0644,0.0623 0.0536,0 0.0729,-0.0186 0.0644,-0.0623 z m -0.009,-0.33249 c 0.0367,-0.0594 -0.0458,-0.12747 -0.095,-0.0784 -0.0411,0.0411 -0.0154,0.11706 0.0396,0.11706 0.0173,0 0.0422,-0.0174 0.0553,-0.0387 z m -0.0197,-0.36871 c 0,-0.0282 -0.0174,-0.0621 -0.0387,-0.0752 -0.0503,-0.0311 -0.11891,0.0376 -0.0878,0.0878 0.0349,0.0565 0.12656,0.0473 0.12656,-0.0126 z m -0.0579,-0.29759 c 0.0282,-0.0456 -0.0371,-0.12553 -0.0806,-0.0987 -0.0572,0.0353 -0.0487,0.1271 0.0117,0.1271 0.0282,0 0.0592,-0.0128 0.0689,-0.0284 z m -0.12686,-0.37272 c 0.0142,-0.0736 -0.0886,-0.12319 -0.14288,-0.0689 -0.0543,0.0543 -0.005,0.15706 0.0689,0.14289 0.0341,-0.007 0.0674,-0.0398 0.074,-0.074 z m -33.12742,23.78476 c -0.0936,-0.0685 -0.0374,-0.13004 0.11866,-0.13004 0.15975,0 0.24466,-0.0707 0.43066,-0.35844 0.12979,-0.20083 0.13211,-0.2104 0.10446,-0.43092 -0.075,-0.59818 -0.11349,-0.81289 -0.15116,-0.84353 -0.0226,-0.0183 -0.15574,-0.025 -0.29592,-0.0147 l -0.25486,0.0187 -0.0745,0.31359 c -0.12485,0.52535 -0.0934,0.62942 0.17939,0.59283 0.16431,-0.022 0.14635,0.0155 -0.0367,0.0767 -0.36977,0.12363 -0.43979,0.0137 -0.32575,-0.51149 0.0425,-0.19586 0.0854,-0.38414 0.0953,-0.41842 0.014,-0.0485 -0.004,-0.0629 -0.0824,-0.065 l -0.10032,-0.003 0.1188,-0.043 c 0.10819,-0.0392 0.12765,-0.07 0.21764,-0.3445 0.0793,-0.24205 0.11383,-0.30371 0.17498,-0.31285 0.0419,-0.006 0.0762,-0.005 0.0762,0.003 0,0.008 -0.0401,0.12874 -0.089,0.26889 -0.13605,0.38939 -0.14412,0.37709 0.23146,0.35276 0.3855,-0.025 0.36815,-0.0438 0.42997,0.46629 0.0244,0.20082 0.0584,0.36041 0.0758,0.35463 0.0173,-0.006 0.14024,-0.19456 0.27313,-0.41951 0.20391,-0.34518 0.25671,-0.41078 0.33836,-0.42042 l 0.0967,-0.0114 -0.156,0.20728 c -0.22105,0.29371 -0.409,0.58029 -0.64972,0.99071 -0.26029,0.44377 -0.38769,0.61072 -0.51717,0.67767 -0.12444,0.0643 -0.14539,0.0648 -0.22802,0.004 z m 2.55733,0.0126 c -0.1091,-0.044 -0.13622,-0.10549 -0.074,-0.16772 0.048,-0.048 0.0619,-0.0457 0.12885,0.0212 0.0471,0.0471 0.12046,0.075 0.1969,0.075 0.25503,0 0.44496,-0.37255 0.64448,-1.26417 0.0482,-0.21544 0.0878,-0.40373 0.088,-0.41842 1.3e-4,-0.0147 -0.0518,-0.0284 -0.11541,-0.0304 l -0.11574,-0.004 0.12734,-0.034 c 0.11379,-0.0304 0.13202,-0.0523 0.17128,-0.20545 0.0707,-0.2759 0.23222,-0.58192 0.37182,-0.70449 0.23693,-0.20802 0.53599,-0.23552 0.65253,-0.06 0.0396,0.0597 0.0384,0.0833 -0.008,0.14939 -0.0859,0.12268 -0.14869,0.0987 -0.14402,-0.0551 0.004,-0.12979 2.7e-4,-0.13385 -0.1314,-0.14471 -0.11669,-0.01 -0.15427,0.008 -0.27116,0.12464 -0.10623,0.10631 -0.15609,0.20266 -0.22955,0.44364 -0.12922,0.42389 -0.12955,0.42218 0.0842,0.42218 0.0979,0 0.17805,0.016 0.17805,0.0356 0,0.0196 -0.0858,0.0356 -0.19057,0.0356 h -0.19058 l -0.0621,0.24037 c -0.10021,0.38768 -0.26958,0.90328 -0.34579,1.05265 -0.10939,0.21443 -0.34166,0.44609 -0.48802,0.48674 -0.15143,0.0421 -0.17524,0.0421 -0.27722,8.6e-4 z m -4.71896,-0.74924 c -0.38631,-0.0658 -0.56328,-0.4309 -0.44372,-0.91541 0.12477,-0.50556 0.47711,-0.86139 0.92517,-0.93431 0.1889,-0.0308 0.5084,0.007 0.56896,0.068 0.0379,0.0379 -0.003,0.42969 -0.0451,0.42969 -0.0155,0 -0.0205,-0.0401 -0.0111,-0.089 0.0247,-0.12917 -0.0722,-0.25138 -0.25469,-0.32105 -0.15096,-0.0577 -0.17019,-0.0576 -0.35794,0.001 -0.31967,0.10055 -0.54083,0.39353 -0.62675,0.83029 -0.0621,0.31592 -0.004,0.56715 0.16538,0.71598 0.17285,0.15176 0.44724,0.15339 0.71772,0.004 0.21476,-0.11841 0.2524,-0.0904 0.0534,0.0398 -0.22532,0.14738 -0.47069,0.20779 -0.69134,0.1702 z m -9.46826,-0.48844 c -0.002,-0.53722 -0.0444,-1.17083 -0.081,-1.20745 -0.0128,-0.0128 -0.0836,-0.034 -0.15722,-0.047 l -0.13393,-0.0237 0.20857,-0.0453 c 0.13564,-0.0294 0.22072,-0.0331 0.24332,-0.0105 0.0459,0.0459 0.0972,0.63698 0.0988,1.13811 8.6e-4,0.22287 0.016,0.40062 0.0344,0.40062 0.0327,0 0.18401,-0.26779 0.60305,-1.06761 0.1178,-0.22484 0.23116,-0.41447 0.25191,-0.42138 0.0247,-0.008 0.0377,0.0973 0.0377,0.30529 0,0.17483 0.0105,0.5126 0.0233,0.75061 0.0269,0.50026 0.0242,0.49949 0.29121,0.0827 0.31711,-0.49499 0.48162,-0.85639 0.48299,-1.06103 8.6e-4,-0.14855 0.0115,-0.17939 0.0559,-0.16417 0.11641,0.0399 0.14122,0.11373 0.0885,0.26327 -0.11598,0.32873 -0.92703,1.59592 -1.02196,1.59672 -0.0553,4.1e-4 -0.0623,-0.0405 -0.0625,-0.36447 -2.5e-4,-0.43217 -0.0371,-0.95258 -0.0674,-0.95258 -0.0118,0 -0.0611,0.0761 -0.10952,0.16915 -0.0484,0.093 -0.12967,0.24126 -0.18056,0.32939 -0.0509,0.0881 -0.16173,0.28845 -0.24629,0.44513 -0.18945,0.35099 -0.20726,0.37391 -0.2906,0.37391 -0.0621,0 -0.067,-0.035 -0.0686,-0.48964 z m 2.08332,0.40224 c -0.21932,-0.21932 -0.0135,-0.81354 0.34705,-1.00189 0.11723,-0.0612 0.38165,-0.0639 0.45889,-0.005 0.16048,0.12322 0.17976,0.35073 0.0519,0.61314 -0.10914,0.22405 -0.14804,0.2713 -0.31875,0.38715 -0.18668,0.12668 -0.416,0.12932 -0.53912,0.006 z m 0.53204,-0.0868 c 0.17221,-0.1462 0.26595,-0.60983 0.15846,-0.78371 -0.0639,-0.10337 -0.1991,-0.13368 -0.31251,-0.0701 -0.19557,0.10972 -0.34267,0.56369 -0.2555,0.78852 0.0633,0.16322 0.25767,0.19419 0.40955,0.0652 z m 1.63285,-0.0484 c 0.0235,-0.28162 0.41044,-1.84396 0.47302,-1.91003 0.0257,-0.0272 0.0703,-0.0403 0.099,-0.0293 0.0436,0.0167 0.0291,0.0992 -0.0866,0.49451 -0.17438,0.59558 -0.30998,1.17443 -0.32358,1.38132 -0.01,0.15157 -0.005,0.16002 0.0964,0.17935 l 0.10683,0.0203 -0.12105,0.0432 c -0.24332,0.0869 -0.26494,0.071 -0.24402,-0.17934 z m 0.61986,0.15745 c -0.12691,-0.14024 -0.0415,-0.50394 0.18446,-0.78543 0.1676,-0.20879 0.38391,-0.30404 0.63227,-0.27841 l 0.18692,0.0193 0.0415,-0.18408 c 0.12142,-0.53792 0.22411,-0.84147 0.29195,-0.863 0.0381,-0.0121 0.0793,-0.012 0.0914,1.1e-4 0.0122,0.0121 -0.0206,0.15384 -0.0729,0.31484 -0.2186,0.67389 -0.37662,1.30289 -0.39083,1.55571 -0.008,0.15111 -0.003,0.16007 0.0979,0.17934 l 0.10683,0.0203 -0.12105,0.0432 c -0.21691,0.0774 -0.25297,0.062 -0.25201,-0.10813 4.2e-4,-0.0832 0.0148,-0.21143 0.0319,-0.28488 0.0171,-0.0734 0.0174,-0.13354 8.6e-4,-0.13354 -0.0167,0 -0.0881,0.0761 -0.15875,0.16915 -0.26608,0.35022 -0.53525,0.4849 -0.67046,0.3355 z m 0.58284,-0.31814 c 0.15433,-0.17533 0.34168,-0.48286 0.36111,-0.59275 0.0279,-0.15792 -0.33514,-0.13454 -0.53607,0.0345 -0.20558,0.17298 -0.33535,0.60367 -0.22277,0.73931 0.0692,0.0834 0.22899,0.0106 0.39773,-0.18109 z m 1.3346,0.34071 c -0.10201,-0.0578 -0.12451,-0.10482 -0.0853,-0.1781 0.0409,-0.0764 0.1387,-0.0858 0.1387,-0.0133 0,0.0906 0.10859,0.16279 0.24502,0.16279 0.14784,0 0.23588,-0.0529 0.26693,-0.16024 0.0289,-0.10001 -0.0157,-0.15547 -0.21127,-0.26275 -0.0936,-0.0513 -0.20125,-0.13548 -0.23917,-0.18696 -0.0655,-0.0889 -0.066,-0.0999 -0.01,-0.21801 0.0762,-0.16049 0.26457,-0.2488 0.4986,-0.23368 0.19621,0.0127 0.27923,0.0904 0.21144,0.19809 -0.0648,0.10292 -0.14996,0.0989 -0.12988,-0.006 0.0379,-0.19828 -0.34119,-0.21 -0.45124,-0.0139 -0.0668,0.11894 -0.027,0.17247 0.23985,0.32308 0.10518,0.0594 0.20863,0.1461 0.22989,0.19274 0.0556,0.12202 -0.0398,0.30479 -0.19835,0.38002 -0.1423,0.0675 -0.40043,0.0759 -0.50531,0.0165 z m 3.81827,-0.003 c -0.0321,-0.0836 0.11818,-0.88035 0.19457,-1.0317 0.0365,-0.0724 0.18871,-0.0876 0.16127,-0.0161 -0.0724,0.18857 -0.17097,0.62037 -0.17765,0.77798 l -0.008,0.19071 0.11573,-4.1e-4 c 0.0637,-1.3e-4 0.11574,0.005 0.11574,0.0107 0,0.0235 -0.25054,0.11426 -0.31554,0.11426 -0.0377,0 -0.0764,-0.0205 -0.086,-0.0455 z m 3.19527,-0.0487 c -0.22507,-0.24286 0.0145,-0.86675 0.38684,-1.00743 0.15738,-0.0595 0.36276,-0.0459 0.45667,0.0303 0.0726,0.0588 0.084,0.0992 0.0835,0.29549 -4.2e-4,0.19672 -0.0167,0.25245 -0.12014,0.41368 -0.21986,0.34263 -0.61581,0.47413 -0.80686,0.26799 z m 0.53075,-0.0791 c 0.12694,-0.11158 0.21423,-0.33361 0.21656,-0.55083 0.002,-0.17693 -0.0103,-0.21796 -0.0819,-0.27598 -0.1219,-0.0988 -0.24502,-0.0855 -0.36132,0.039 -0.10857,0.11623 -0.2134,0.38076 -0.2134,0.53854 0,0.29303 0.2373,0.42748 0.44002,0.24929 z m 2.77382,0.14916 c -0.0832,-0.009 -0.15134,-0.0237 -0.15134,-0.0336 0,-0.01 0.0401,-0.1813 0.0891,-0.38076 0.11159,-0.45439 0.18204,-0.76635 0.23373,-1.035 0.0446,-0.23163 0.0164,-0.28537 -0.13584,-0.25931 -0.12624,0.0216 -0.0934,-0.036 0.0356,-0.0625 0.0636,-0.013 0.26797,-0.0323 0.45403,-0.0427 0.28308,-0.0159 0.35864,-0.008 0.46294,0.046 0.0993,0.0517 0.12696,0.0893 0.1361,0.18489 0.006,0.066 -0.008,0.168 -0.0327,0.22672 -0.0501,0.12107 -0.29288,0.31212 -0.39656,0.31212 -0.10251,0 -0.0554,0.0872 0.0542,0.10016 0.14365,0.0171 0.31022,0.19145 0.31022,0.32479 0,0.43038 -0.43285,0.68336 -1.05941,0.61917 z m 0.65154,-0.19053 c 0.31996,-0.29894 0.22939,-0.66735 -0.17778,-0.72316 -0.0967,-0.0133 -0.19027,-0.01 -0.20784,0.008 -0.0292,0.0292 -0.2036,0.70993 -0.2036,0.79477 0,0.0228 0.0931,0.0312 0.24754,0.0225 0.20261,-0.0115 0.26462,-0.0299 0.34168,-0.10195 z m -0.11015,-0.85745 c 0.20978,-0.0582 0.37571,-0.24008 0.37503,-0.41099 -2.7e-4,-0.0754 -0.0123,-0.15473 -0.0267,-0.17628 -0.0478,-0.0715 -0.17993,-0.12107 -0.32293,-0.12107 h -0.14121 l -0.0568,0.25818 c -0.10915,0.49642 -0.10866,0.48966 -0.035,0.48945 0.0367,-1.1e-4 0.13012,-0.0178 0.20755,-0.0393 z m 0.68379,1.00706 c -0.0828,-0.0915 -0.0735,-0.21216 0.0329,-0.42571 0.23095,-0.46345 0.79133,-0.80945 0.95932,-0.59232 0.0498,0.0644 0.0549,0.0647 0.0902,0.006 0.0205,-0.0343 0.0697,-0.0623 0.1092,-0.0623 0.0918,0 0.0807,0.0356 -0.16791,0.53805 -0.19585,0.39577 -0.22576,0.49466 -0.14963,0.49466 0.071,0 -0.0157,0.0639 -0.12253,0.0903 -0.11778,0.0291 -0.15387,-0.033 -0.10059,-0.17317 0.0444,-0.11689 0.0226,-0.11899 -0.11894,-0.0114 -0.26628,0.20238 -0.43329,0.24507 -0.532,0.13601 z m 0.43432,-0.128 c 0.11891,-0.0615 0.37173,-0.33037 0.4424,-0.4705 0.25681,-0.50925 -0.0952,-0.60822 -0.47697,-0.13411 -0.1911,0.23731 -0.30122,0.55162 -0.22129,0.63155 0.0389,0.0389 0.15136,0.0271 0.25586,-0.027 z m 1.05121,0.15009 c -0.047,-0.076 -0.0238,-0.3621 0.0538,-0.66112 0.0415,-0.16008 0.0754,-0.29949 0.0754,-0.3098 0,-0.0103 -0.0441,-0.02 -0.0979,-0.0216 l -0.0979,-0.003 0.10683,-0.0377 c 0.13717,-0.0484 0.11585,-0.0175 0.21978,-0.31808 0.0994,-0.28734 0.13783,-0.35083 0.21259,-0.35083 0.0557,0 0.0365,0.12874 -0.0426,0.28611 -0.0249,0.0496 -0.0565,0.14979 -0.0702,0.22257 l -0.0248,0.1323 h 0.18412 c 0.11367,0 0.17569,0.0136 0.1621,0.0356 -0.0121,0.0196 -0.106,0.0356 -0.20867,0.0356 h -0.18667 l -0.0783,0.31531 c -0.13081,0.52671 -0.0985,0.63698 0.17562,0.60021 0.16431,-0.022 0.14635,0.0155 -0.0367,0.0767 -0.15767,0.0527 -0.31302,0.0516 -0.34647,-0.003 z m 0.77021,-0.10998 c 0,-0.15558 0.11264,-0.72546 0.1767,-0.89394 0.0469,-0.12329 0.20098,-0.13509 0.16268,-0.0125 -0.087,0.2787 -0.19684,0.77062 -0.18874,0.84558 0.007,0.0676 0.0352,0.0935 0.11643,0.10812 l 0.10684,0.0193 -0.12105,0.0432 c -0.21721,0.0776 -0.25286,0.0621 -0.25286,-0.10979 z m 1.27104,0.0894 c -0.0552,-0.061 -0.13297,-0.22616 -0.18143,-0.38528 -0.0193,-0.0634 10e-4,-0.0841 0.13212,-0.13417 0.31674,-0.12096 0.46222,-0.40287 0.20139,-0.39024 -0.16684,0.008 -0.37853,0.24342 -0.57426,0.63842 -0.10629,0.2145 -0.16702,0.29929 -0.21438,0.29929 -0.0507,0 -0.0614,-0.0187 -0.0462,-0.0801 0.41695,-1.6782 0.5056,-2.00024 0.56011,-2.03462 0.13431,-0.0847 0.11979,0.0445 -0.0836,0.74375 -0.11391,0.39171 -0.20781,0.74024 -0.20866,0.77452 -0.003,0.097 0.0568,0.0737 0.13575,-0.0534 0.17968,-0.2893 0.51208,-0.51217 0.67284,-0.45114 0.0936,0.0355 0.10087,0.10297 0.0267,0.24646 -0.0535,0.1034 -0.33173,0.32041 -0.41085,0.32041 -0.059,0 -0.0154,0.15282 0.0923,0.32345 0.0717,0.11364 0.10941,0.14002 0.20333,0.14238 l 0.11529,0.003 -0.10683,0.0489 c -0.14696,0.0673 -0.24559,0.0637 -0.31362,-0.0115 z m -18.61331,-0.0105 c 0,-0.0212 0.0486,-0.23824 0.10793,-0.48236 0.0594,-0.24412 0.0985,-0.45914 0.0869,-0.47784 -0.0115,-0.0187 -0.0561,-0.0356 -0.099,-0.0377 -0.0501,-0.003 -0.03,-0.0164 0.056,-0.0392 0.22105,-0.0587 0.24208,-0.0328 0.17845,0.21982 -0.0554,0.21985 -0.0351,0.32457 0.0389,0.20078 0.1177,-0.19685 0.26916,-0.36652 0.37456,-0.41957 0.14353,-0.0722 0.21773,-0.0507 0.21773,0.0633 0,0.0764 -0.0145,0.0844 -0.14327,0.0793 -0.11406,-0.004 -0.16545,0.0155 -0.25212,0.0982 -0.10013,0.0955 -0.42365,0.70176 -0.42365,0.79393 0,0.022 -0.032,0.0399 -0.0712,0.0399 -0.0391,0 -0.0712,-0.0173 -0.0712,-0.0385 z m 16.07809,-0.10392 c 0.0355,-0.0392 0.0725,-0.0712 0.0823,-0.0712 0.01,0 -0.0112,0.032 -0.0466,0.0712 -0.0355,0.0392 -0.0725,0.0712 -0.0823,0.0712 -0.01,0 0.0112,-0.032 0.0466,-0.0712 z m -12.77521,-1.19216 c 0.11449,-0.14015 0.14903,-0.27869 0.0801,-0.32129 -0.0615,-0.038 -0.0388,-0.15603 0.0379,-0.19707 0.0926,-0.0496 0.17578,0.0101 0.17578,0.12619 0,0.10128 -0.20219,0.40249 -0.32048,0.47743 -0.0798,0.0505 -0.077,0.0417 0.0267,-0.0853 z m 4.38473,-0.18395 c -0.0325,-0.0391 -0.0346,-0.0709 -0.008,-0.11361 0.0828,-0.13153 0.26635,-0.0774 0.19427,0.0573 -0.052,0.0971 -0.13252,0.12146 -0.18658,0.0563 z m 9.99038,0.0113 c -0.0401,-0.10462 -4e-4,-0.18418 0.0921,-0.18418 0.11452,0 0.11987,0.11294 0.009,0.18666 -0.0709,0.0471 -0.082,0.0468 -0.10095,-0.003 z m -29.46993,-2.27312 c -0.41714,-1.07096 -0.83597,-2.88801 -0.91999,-3.99136 -0.0213,-0.2792 -0.0543,-0.70794 -0.0734,-0.95276 -0.0446,-0.57108 -0.0447,-2.29358 -1.5e-4,-2.71812 0.0188,-0.17961 0.0517,-0.607 0.0731,-0.94975 0.0588,-0.94248 0.21878,-2.14542 0.38605,-2.90224 0.14377,-0.65052 0.36499,-1.23066 0.48714,-1.27754 0.10311,-0.0396 0.56586,-0.0225 0.65753,0.0242 0.0734,0.0374 0.0885,0.0702 0.0859,0.18643 -0.002,0.0776 -0.0157,0.19312 -0.0311,0.25677 -0.0195,0.0807 -0.0154,0.11573 0.0138,0.11573 0.023,0 0.28938,-0.10423 0.59203,-0.23162 0.78697,-0.33126 1.32094,-0.47966 2.25954,-0.62795 0.7026,-0.111 2.29735,-0.12137 2.88445,-0.0187 0.73225,0.128 1.22138,0.27666 1.67739,0.50983 0.39101,0.19994 0.60546,0.362 0.87726,0.66296 0.25553,0.28295 0.40858,0.57818 0.51223,0.98806 0.16634,0.65777 -0.002,1.7711 -0.36566,2.41877 -0.62743,1.11738 -1.75539,2.22211 -3.05941,2.99641 -1.48033,0.87899 -3.27031,1.50388 -5.55314,1.9386 -0.16647,0.0317 -0.31323,0.0685 -0.32612,0.0818 -0.0351,0.0363 0.18031,1.31187 0.28788,1.70447 0.0205,0.0747 0.0781,0.32014 0.12799,0.54538 0.0499,0.22524 0.1233,0.55374 0.16306,0.73001 0.15871,0.70368 0.16572,0.74697 0.12487,0.7706 -0.0216,0.0125 -0.19962,0.034 -0.39548,0.0477 l -0.35611,0.0249 z m 0.74864,-4.64461 c 2.1975,-0.45109 4.38657,-1.33027 5.61272,-2.25421 1.04357,-0.78635 1.94252,-1.96486 2.14017,-2.80573 0.0776,-0.33002 0.052,-0.84378 -0.056,-1.12676 -0.29128,-0.76276 -1.19338,-1.33087 -2.51145,-1.58164 -0.47219,-0.0898 -2.12096,-0.0888 -2.67077,0.002 -1.0843,0.17846 -2.26321,0.62823 -2.70904,1.03352 -0.14286,0.12988 -0.16919,0.17721 -0.21127,0.37984 -0.06,0.28873 -0.17898,1.18649 -0.23842,1.79832 -0.0605,0.62255 -0.0584,2.5902 0.004,3.73019 0.0477,0.87282 0.0535,0.91697 0.12055,0.91697 0.0387,0 0.27257,-0.0415 0.51963,-0.0922 z m 44.96905,-5.18442 c -0.59355,-0.94773 -0.72349,-2.08976 -0.39229,-3.44792 0.0684,-0.28056 0.33878,-0.99162 0.45868,-1.20634 0.0957,-0.17135 0.10621,-0.21807 0.0491,-0.21807 -0.0454,0 -0.31434,0.55892 -0.43699,0.90806 -0.12628,0.35946 -0.22728,0.7162 -0.27222,0.96148 -0.068,0.37135 -0.0744,0.39197 -0.10538,0.34184 -0.0437,-0.0707 -0.161,-0.0307 -0.17383,0.0593 -0.0136,0.0956 0.0778,0.1427 0.15406,0.0794 0.046,-0.0382 0.0516,-0.004 0.0441,0.26306 -0.005,0.1753 -0.024,0.30669 -0.0443,0.30651 -0.0196,-1.7e-4 -0.11809,-0.0387 -0.2189,-0.0857 -0.30515,-0.14208 -0.59512,-0.59663 -0.69078,-1.08286 -0.042,-0.21352 -0.0458,-0.21879 -0.17202,-0.23761 -0.57923,-0.0864 -0.88268,-0.28427 -1.09207,-0.71226 -0.20039,-0.40957 -0.14177,-0.94156 0.1483,-1.34594 l 0.12247,-0.17073 -0.11966,-0.14976 c -0.242,-0.30285 -0.36405,-0.73728 -0.33603,-1.19603 0.0284,-0.46492 0.0253,-0.46288 0.32294,-0.21176 0.68342,0.57657 1.43118,0.93681 2.54263,1.22491 0.2592,0.0672 0.50758,0.12257 0.55196,0.12307 0.0589,8.6e-4 0.0982,0.039 0.14558,0.14168 0.0357,0.0774 0.0538,0.15873 0.0402,0.18069 -0.0163,0.0264 0.003,0.0249 0.0582,-0.004 0.0456,-0.0244 0.13852,-0.0477 0.20651,-0.0519 0.26894,-0.0163 0.39489,-0.38587 0.19474,-0.57138 -0.13645,-0.12644 -0.30121,-0.1177 -0.41897,0.0223 -0.0507,0.0603 -0.0922,0.13237 -0.0922,0.16025 0,0.0695 -0.0722,0.0644 -0.52136,-0.037 -1.22363,-0.27622 -2.19992,-0.80831 -3.03967,-1.65666 -0.51435,-0.51961 -0.86136,-1.07716 -1.06888,-1.71742 -0.0584,-0.18031 -0.10627,-0.3357 -0.10627,-0.3453 0,-0.01 0.0817,0.0742 0.18147,0.18615 0.32407,0.3636 0.85913,0.68872 1.27581,0.77522 0.15639,0.0325 0.38775,0.0284 1.10624,-0.0195 1.12878,-0.0752 1.65868,-0.0348 2.17266,0.16576 0.72842,0.28419 1.14766,0.90089 1.28756,1.89398 l 0.0457,0.32471 0.25763,0.31694 c 0.29035,0.35721 0.48765,0.70641 0.54635,0.96699 0.0517,0.22937 0.0508,0.71446 -0.002,1.08899 -0.0722,0.51322 -0.19316,0.68697 -1.17411,1.68666 -1.06778,1.08819 -1.19823,1.31441 -1.24244,2.15443 l -0.0216,0.40952 z m -0.0424,-1.16934 c 0,-0.0763 -0.10347,-0.0653 -0.11848,0.0126 -0.009,0.0476 0.005,0.0621 0.0529,0.0529 0.0361,-0.007 0.0655,-0.0365 0.0655,-0.0656 z m 0.0534,-0.3001 c 0,-0.0282 -0.0128,-0.0592 -0.0284,-0.0689 -0.0456,-0.0282 -0.12553,0.0371 -0.0987,0.0806 0.0353,0.0572 0.1271,0.0487 0.1271,-0.0117 z m 0.0458,-0.30881 c -0.0601,-0.0601 -0.13153,-0.003 -0.0776,0.0621 0.0298,0.0359 0.0543,0.0404 0.0801,0.0146 0.0258,-0.0258 0.025,-0.0493 -0.003,-0.0768 z m 0.15194,-0.21275 c 0.0367,-0.0594 -0.0458,-0.12746 -0.095,-0.0783 -0.0411,0.0411 -0.0154,0.11706 0.0396,0.11706 0.0173,0 0.0422,-0.0174 0.0553,-0.0387 z m 0.21175,-0.31987 c 0,-0.0275 -0.028,-0.0554 -0.0623,-0.062 -0.0614,-0.0118 -0.0868,0.0637 -0.0378,0.11266 0.0373,0.0373 0.10016,0.006 0.10016,-0.0507 z m 0.30269,-0.26952 c 0,-0.0706 -0.10756,-0.10494 -0.144,-0.046 -0.0383,0.062 0.0258,0.14203 0.0932,0.11619 0.0279,-0.0107 0.0508,-0.0423 0.0508,-0.0702 z m 0.21365,-0.26215 c 0,-0.0396 -0.0237,-0.0712 -0.0534,-0.0712 -0.0297,0 -0.0534,0.0317 -0.0534,0.0712 0,0.0396 0.0238,0.0712 0.0534,0.0712 0.0297,0 0.0534,-0.0317 0.0534,-0.0712 z m -1.76271,-0.0529 c 0,-0.0786 -0.11071,-0.11769 -0.16876,-0.0596 -0.0598,0.0599 -8.5e-4,0.15445 0.0885,0.14177 0.0525,-0.007 0.0803,-0.0359 0.0803,-0.0821 z m 2.0298,-0.19683 c 0,-0.0763 -0.10348,-0.0653 -0.11848,0.0126 -0.009,0.0476 0.005,0.0621 0.0529,0.0529 0.0361,-0.007 0.0656,-0.0365 0.0656,-0.0656 z m -2.13663,-0.088 c 0,-0.0786 -0.11071,-0.11769 -0.16876,-0.0596 -0.0598,0.0598 -8.5e-4,0.15445 0.0885,0.14177 0.0525,-0.007 0.0803,-0.0359 0.0803,-0.0821 z m 2.3859,-0.12513 c 0,-0.0288 -0.028,-0.0578 -0.0623,-0.0644 -0.0437,-0.008 -0.0623,0.0108 -0.0623,0.0644 0,0.0536 0.0186,0.0729 0.0623,0.0644 0.0343,-0.007 0.0623,-0.0356 0.0623,-0.0644 z m -2.52834,-0.19537 c 0,-0.0786 -0.11071,-0.11768 -0.16876,-0.0596 -0.0598,0.0599 -8.6e-4,0.15445 0.0885,0.14178 0.0525,-0.007 0.0803,-0.0359 0.0803,-0.0821 z m 2.75981,-0.0755 c 0,-0.0273 -0.0321,-0.0496 -0.0712,-0.0496 -0.067,0 -0.0968,0.0694 -0.0499,0.11625 0.0347,0.0346 0.12116,-0.0129 0.12116,-0.0666 z m -2.88296,-0.17604 c 0.0378,-0.0455 0.0359,-0.0651 -0.0107,-0.1117 -0.0311,-0.0311 -0.0818,-0.0468 -0.11268,-0.035 -0.0668,0.0256 -0.0751,0.15266 -0.0117,0.17826 0.073,0.0294 0.0871,0.0261 0.13503,-0.0316 z m 3.0254,-0.10294 c 0,-0.0282 -0.0174,-0.0621 -0.0387,-0.0752 -0.0503,-0.0311 -0.11892,0.0376 -0.0879,0.0878 0.0349,0.0565 0.12656,0.0474 0.12656,-0.0126 z m -3.15558,-0.18118 c 0.0718,-0.0719 0.035,-0.15922 -0.0672,-0.15922 -0.10217,0 -0.13903,0.0874 -0.0672,0.15922 0.0299,0.03 0.0602,0.0545 0.0672,0.0545 0.007,0 0.0372,-0.0245 0.0672,-0.0545 z m 3.26241,-0.1079 c 0,-0.0523 -0.076,-0.0703 -0.1184,-0.0279 -0.0322,0.0322 0.0476,0.12295 0.0868,0.0987 0.0174,-0.0107 0.0316,-0.0426 0.0316,-0.0708 z m -3.38299,-0.24337 c 0,-0.10454 -0.0861,-0.1441 -0.15771,-0.0725 -0.0716,0.0716 -0.032,0.1577 0.0725,0.1577 0.0661,0 0.0852,-0.0191 0.0852,-0.0852 z m 3.43391,-0.0969 c -0.0303,-0.0491 -0.12215,-0.0371 -0.12215,0.0159 0,0.0261 0.0105,0.058 0.0234,0.0709 0.0322,0.0322 0.12294,-0.0476 0.0987,-0.0868 z m -3.58289,-0.21883 c 0.01,-0.084 -10e-4,-0.0976 -0.0801,-0.0976 -0.072,0 -0.0914,0.0176 -0.0914,0.0831 0,0.0457 0.0112,0.0943 0.025,0.10806 0.0528,0.0528 0.13577,-2.2e-4 0.14655,-0.0935 z m 3.52568,-0.0858 c -0.0173,-0.0893 -0.10054,-0.1016 -0.10054,-0.0148 0,0.0437 0.023,0.0742 0.056,0.0742 0.0332,0 0.0513,-0.0242 0.0445,-0.0594 z m -3.63299,-0.17647 c 0.0134,-0.0935 -0.0928,-0.14258 -0.16086,-0.0745 -0.027,0.027 -0.0379,0.0756 -0.0248,0.11002 0.0333,0.0868 0.17195,0.0602 0.18561,-0.0356 z m 1.99844,-0.12675 c 0.0631,-0.1015 0.093,-0.16651 0.0664,-0.14447 -0.0506,0.042 -0.22149,0.329 -0.19591,0.329 0.008,0 0.0664,-0.083 0.12948,-0.18453 z m -2.15167,-0.18889 c 0,-0.0786 -0.11071,-0.11768 -0.16876,-0.0596 -0.0599,0.0598 -8.6e-4,0.15445 0.0885,0.14176 0.0525,-0.007 0.0803,-0.0359 0.0803,-0.0821 z m 2.57801,0.004 c 0.0551,-0.0663 0.0118,-0.16476 -0.0724,-0.16476 -0.0864,0 -0.12373,0.091 -0.0659,0.1607 0.0546,0.0658 0.0863,0.0667 0.13832,0.004 z m 0.40505,-0.0312 c 0.0274,-0.0785 -0.0148,-0.13354 -0.10243,-0.13354 -0.0672,0 -0.0852,0.0189 -0.0852,0.089 0,0.0704 0.018,0.089 0.0861,0.089 0.0473,0 0.093,-0.02 0.10159,-0.0445 z m -0.64604,-0.0534 c 0.0443,-0.0565 0.043,-0.0577 -0.0134,-0.0134 -0.0343,0.0269 -0.0623,0.0549 -0.0623,0.0623 0,0.0293 0.0293,0.0104 0.0758,-0.0489 z m -2.47946,-0.22256 c 0,-0.10152 -0.1124,-0.14455 -0.14636,-0.056 -0.0324,0.0844 0.0134,0.1697 0.0839,0.15612 0.0394,-0.008 0.0624,-0.0445 0.0624,-0.10007 z m 2.41663,0.0177 c 0.0241,-0.0629 -0.0682,-0.13821 -0.13712,-0.11178 -0.065,0.0249 -0.0718,0.15315 -0.009,0.17494 0.0614,0.0214 0.12446,-0.006 0.14648,-0.0632 z m 0.9623,-8.5e-4 c 0.0729,-0.0729 0.0344,-0.15922 -0.071,-0.15922 -0.0664,0 -0.0852,0.019 -0.0852,0.0861 0,0.0473 0.02,0.0941 0.0445,0.10402 0.0245,0.01 0.0474,0.0192 0.0509,0.0208 0.003,0.002 0.0308,-0.0217 0.0608,-0.0516 z m -3.47978,-0.25101 c 0.0119,-0.0309 -0.005,-0.0824 -0.0367,-0.11446 -0.054,-0.054 -0.0626,-0.054 -0.11656,0 -0.0728,0.0728 -0.0394,0.17064 0.0583,0.17064 0.0404,0 0.0832,-0.0253 0.095,-0.0562 z m 2.48269,-0.14071 c 0.0729,-0.0729 0.0345,-0.15921 -0.071,-0.15921 -0.0664,0 -0.0852,0.019 -0.0852,0.0861 0,0.0473 0.02,0.0941 0.0445,0.10402 0.0245,0.01 0.0474,0.0192 0.0509,0.0208 0.003,0.002 0.0309,-0.0217 0.0608,-0.0516 z m 1.01895,-0.0346 c 0.0354,-0.0426 0.0354,-0.0642 0,-0.10683 -0.089,-0.10722 -0.21584,-0.0252 -0.16518,0.10683 0.0113,0.0294 0.0431,0.0534 0.0707,0.0534 0.0276,0 0.0701,-0.024 0.0945,-0.0534 z m -3.63077,-0.10861 c 0.0376,-0.0454 0.0364,-0.0647 -0.007,-0.10814 -0.0645,-0.0645 -0.17241,-0.0305 -0.17241,0.0544 0,0.1177 0.1013,0.14803 0.17954,0.0538 z m 2.87594,-0.21661 c 0.0138,-0.0964 -0.0934,-0.14155 -0.1654,-0.0696 -0.0442,0.0442 -0.0451,0.0623 -0.006,0.10967 0.0628,0.0757 0.15784,0.0534 0.17125,-0.0401 z m 0.46293,-0.0356 c 0.0138,-0.0964 -0.0934,-0.14155 -0.16539,-0.0696 -0.0442,0.0442 -0.0451,0.0623 -0.006,0.10966 0.0628,0.0757 0.15784,0.0534 0.17125,-0.0401 z m -3.50352,8.6e-4 c 0.0627,-0.0241 0.0762,-0.13993 0.0204,-0.17444 -0.0519,-0.0321 -0.17774,0.0151 -0.17774,0.0667 0,0.0241 0.0192,0.0631 0.0427,0.0866 0.0499,0.0499 0.0429,0.0486 0.1146,0.0211 z m -0.0925,-0.36173 c 0.0146,-0.10238 -0.0861,-0.14481 -0.16244,-0.0684 -0.0473,0.0473 -0.0488,0.0658 -0.009,0.11323 0.0641,0.0772 0.15795,0.0528 0.17186,-0.0448 z m 3.31817,-0.62562 c 0,-0.0261 -0.0105,-0.058 -0.0234,-0.0709 -0.0322,-0.0322 -0.12295,0.0476 -0.0987,0.0868 0.0303,0.0491 0.12215,0.0371 0.12215,-0.0159 z m -0.20976,-0.28336 c -0.0191,-0.0191 -0.0616,-0.0244 -0.0945,-0.0118 -0.0488,0.0187 -0.0516,0.0328 -0.0155,0.0764 0.0344,0.0415 0.0556,0.0441 0.0945,0.0118 0.0326,-0.0271 0.038,-0.0538 0.0155,-0.0764 z m -0.23977,-0.11564 c 0.0122,-0.0317 -0.002,-0.0637 -0.0342,-0.0759 -0.0665,-0.0255 -0.13926,0.0378 -0.10575,0.092 0.035,0.0565 0.11564,0.0473 0.13995,-0.016 z m -2.33437,-0.0995 c 0.008,-0.04 -0.0125,-0.0594 -0.0623,-0.0594 -0.0406,0 -0.0738,0.0214 -0.0738,0.0475 0,0.10907 0.11535,0.11914 0.13615,0.0119 z m -0.36761,-0.0262 c 0,-0.0275 -0.028,-0.0554 -0.0623,-0.062 -0.0614,-0.0118 -0.0868,0.0637 -0.0378,0.11266 0.0373,0.0373 0.10016,0.006 0.10016,-0.0507 z m 0.6944,0.0224 c 0,-0.0282 -0.0128,-0.0592 -0.0284,-0.0689 -0.0456,-0.0282 -0.12554,0.0371 -0.0987,0.0806 0.0354,0.0572 0.1271,0.0487 0.1271,-0.0117 z m 0.37583,0.0126 c 0.0367,-0.0594 -0.0458,-0.12747 -0.095,-0.0784 -0.0411,0.0411 -0.0154,0.11706 0.0396,0.11706 0.0173,0 0.0422,-0.0174 0.0553,-0.0387 z m 1.33347,-0.0325 c 0,-0.0396 -0.0237,-0.0712 -0.0534,-0.0712 -0.0297,0 -0.0534,0.0317 -0.0534,0.0712 0,0.0396 0.0237,0.0712 0.0534,0.0712 0.0297,0 0.0534,-0.0317 0.0534,-0.0712 z m -1.0462,-0.0906 c -0.0187,-0.0488 -0.0328,-0.0517 -0.0764,-0.0155 -0.0415,0.0344 -0.0441,0.0556 -0.0118,0.0945 0.0532,0.0642 0.12011,0.004 0.0882,-0.0791 z m 0.7257,0.0194 c 0,-0.0737 -0.0859,-0.0983 -0.12463,-0.0356 -0.0298,0.0482 0.0104,0.10684 0.0733,0.10684 0.0282,0 0.0513,-0.032 0.0513,-0.0712 z m -2.36224,-0.0202 c 0.0297,-0.0774 -0.0457,-0.15008 -0.0996,-0.0962 -0.0456,0.0456 -0.0173,0.15196 0.0403,0.15196 0.0208,0 0.0475,-0.0251 0.0593,-0.0558 z m 2.04175,0.003 c 0,-0.0294 -0.0231,-0.0534 -0.0513,-0.0534 -0.0595,0 -0.0997,0.0508 -0.0664,0.0841 0.0426,0.0426 0.11773,0.023 0.11773,-0.0306 z m -2.31468,-0.1365 c 0,-0.0261 -0.0106,-0.058 -0.0234,-0.0709 -0.0322,-0.0322 -0.12295,0.0476 -0.0987,0.0868 0.0303,0.0491 0.12215,0.0371 0.12215,-0.0159 z m -0.21366,-0.2196 c 0,-0.0294 -0.0231,-0.0534 -0.0513,-0.0534 -0.0595,0 -0.0996,0.0508 -0.0664,0.0841 0.0426,0.0426 0.11773,0.023 0.11773,-0.0306 z"
       id="path855" />
  </g>
</svg>
